<svg width="15" height="12" viewBox="0 0 15 12" fill="none" xmlns="http://www.w3.org/2000/svg">
<path d="M0.75 3.75V9.75C0.75 10.1478 0.908035 10.5294 1.18934 10.8107C1.47064 11.092 1.85218 11.25 2.25 11.25H12.75C13.1478 11.25 13.5294 11.092 13.8107 10.8107C14.092 10.5294 14.25 10.1478 14.25 9.75V3.75M0.75 3.75V2.25C0.75 1.85218 0.908035 1.47064 1.18934 1.18934C1.47064 0.908035 1.85218 0.75 2.25 0.75H12.75C13.1478 0.75 13.5294 0.908035 13.8107 1.18934C14.092 1.47064 14.25 1.85218 14.25 2.25V3.75M0.75 3.75H14.25M3.75 6.75H7.5" stroke="white" stroke-width="1.4" stroke-linecap="round" stroke-linejoin="round"/>
</svg>
