<svg width="18" height="18" viewBox="0 0 18 18" fill="none" xmlns="http://www.w3.org/2000/svg">
<path d="M9.4631 0.220132C9.6445 0.302587 9.79292 0.418021 9.92484 0.58293L17.2303 7.88838C17.4447 8.10276 17.5601 8.3831 17.5766 8.69643C17.5766 8.99327 17.4447 9.2901 17.2303 9.50448L17.1808 9.55396C16.7356 9.99921 16.01 9.99921 15.5647 9.55396L10.1722 4.16145L10.1887 16.711C10.1887 17.3376 9.67748 17.8489 9.05083 17.8489L8.98487 17.8489C8.35821 17.8489 7.847 17.3376 7.847 16.711L7.847 4.14496L2.438 9.55396C1.99274 9.99921 1.26715 9.99921 0.821893 9.55396L0.77242 9.50449C0.558039 9.29011 0.442603 9.00976 0.426112 8.69644C0.426112 8.3996 0.558039 8.10277 0.77242 7.88838L8.07787 0.582932C8.20979 0.418023 8.35821 0.302588 8.53961 0.220133C8.70452 0.15417 8.83645 0.121187 9.00136 0.121187C9.16627 0.121187 9.31468 0.170659 9.4631 0.220132Z" fill="#DDA057"/>
</svg>
