<svg width="18" height="21" viewBox="0 0 18 21" fill="none" xmlns="http://www.w3.org/2000/svg">
<path id="Union" fill-rule="evenodd" clip-rule="evenodd" d="M9.091 0.0234375C7.65976 0.0234375 6.12138 1.60486 5.72897 2.92554C4.17286 3.63375 3.091 5.20225 3.091 7.02344L2.61969 11.7366C2.60094 11.924 2.52965 12.1023 2.414 12.251L0.346288 14.9095C-0.164601 15.5664 0.303493 16.5234 1.13564 16.5234H16.8642C17.727 16.5234 18.1848 15.504 17.6116 14.8591L15.3064 12.2657C15.1664 12.1082 15.0797 11.9105 15.0587 11.7009L14.591 7.02344C14.591 5.24906 13.564 3.71454 12.0721 2.98184C11.7863 1.65026 10.5426 0.0234375 9.091 0.0234375ZM9.13379 20.9768C10.7906 20.9768 12.1338 19.6337 12.1338 17.9768C12.1338 18.0051 11.6444 17.9992 10.8919 17.99C10.3979 17.984 9.79048 17.9766 9.13379 17.9766C7.47693 17.9766 6.13379 17.9768 6.13379 17.9768C6.13379 19.6337 7.47693 20.9768 9.13379 20.9768Z" fill="#191B1E"/>
</svg>
