<svg width="18" height="18" viewBox="0 0 18 18" fill="none" xmlns="http://www.w3.org/2000/svg">
<path d="M8.5369 17.7799C8.3555 17.6974 8.20708 17.582 8.07516 17.4171L0.769708 10.1116C0.555327 9.89724 0.439891 9.6169 0.4234 9.30357C0.4234 9.00674 0.555326 8.7099 0.769707 8.49552L0.81918 8.44605C1.26443 8.00079 1.99003 8.00079 2.43528 8.44604L7.82779 13.8386L7.8113 1.28901C7.8113 0.662357 8.32252 0.15114 8.94917 0.15114L9.01513 0.15114C9.64179 0.15114 10.153 0.662357 10.153 1.28901L10.153 13.855L15.562 8.44604C16.0073 8.00079 16.7329 8.00079 17.1781 8.44604L17.2276 8.49551C17.442 8.70989 17.5574 8.99024 17.5739 9.30356C17.5739 9.6004 17.442 9.89723 17.2276 10.1116L9.92213 17.4171C9.79021 17.582 9.64179 17.6974 9.46039 17.7799C9.29548 17.8458 9.16355 17.8788 8.99864 17.8788C8.83374 17.8788 8.68532 17.8293 8.5369 17.7799Z" fill="#ABB0BC"/>
</svg>
