<svg width="16" height="12" viewBox="0 0 16 12" fill="none" xmlns="http://www.w3.org/2000/svg">
<path fill-rule="evenodd" clip-rule="evenodd" d="M0.894531 7.91153C0.894531 7.41352 1.29827 7.00977 1.7963 7.00977H14.2046C14.5693 7.00977 14.8982 7.22944 15.0378 7.56646C15.1773 7.90336 15.1002 8.29124 14.8422 8.54915L11.656 11.7354C11.3038 12.0876 10.7329 12.0876 10.3808 11.7354C10.0286 11.3832 10.0286 10.8123 10.3808 10.4602L12.0275 8.8133H1.7963C1.29827 8.8133 0.894531 8.40955 0.894531 7.91153Z" fill="#DDA057"/>
<path fill-rule="evenodd" clip-rule="evenodd" d="M5.62019 0.264119C5.97236 0.616278 5.97236 1.18725 5.62019 1.53941L3.97339 3.18625H14.2047C14.7027 3.18625 15.1064 3.58999 15.1064 4.08802C15.1064 4.58603 14.7027 4.98978 14.2047 4.98978H1.79633C1.43159 4.98978 1.10278 4.77011 0.963203 4.43309C0.823621 4.09619 0.900777 3.70831 1.15868 3.45037L4.34493 0.264119C4.69709 -0.0880397 5.26807 -0.0880397 5.62019 0.264119Z" fill="#DDA057"/>
</svg>
